<?xml version="1.0" encoding="iso-8859-1"?>
<!-- Generator: Adobe Illustrator 19.0.0, SVG Export Plug-In . SVG Version: 6.00 Build 0)  -->
<svg version="1.1" id="Capa_1" xmlns="http://www.w3.org/2000/svg" xmlns:xlink="http://www.w3.org/1999/xlink" x="0px" y="0px"
	 viewBox="0 0 512 512" style="enable-background:new 0 0 512 512;" xml:space="preserve">
<g>
	<g>
		<path d="M160,0H10.667C4.779,0,0,4.779,0,10.667V160c0,5.888,4.779,10.667,10.667,10.667H160c5.888,0,10.667-4.779,10.667-10.667
			V10.667C170.667,4.779,165.888,0,160,0z M149.333,149.333h-128v-128h128V149.333z"/>
	</g>
</g>
<g>
	<g>
		<path d="M501.333,0H352c-5.888,0-10.667,4.779-10.667,10.667V160c0,5.888,4.779,10.667,10.667,10.667h149.333
			c5.888,0,10.667-4.779,10.667-10.667V10.667C512,4.779,507.221,0,501.333,0z M490.667,149.333h-128v-128h128V149.333z"/>
	</g>
</g>
<g>
	<g>
		<path d="M160,341.333H10.667C4.779,341.333,0,346.112,0,352v149.333C0,507.221,4.779,512,10.667,512H160
			c5.888,0,10.667-4.779,10.667-10.667V352C170.667,346.112,165.888,341.333,160,341.333z M149.333,490.667h-128v-128h128V490.667z"
			/>
	</g>
</g>
<g>
	<g>
		<path d="M160,192H21.333c-5.888,0-10.667,4.779-10.667,10.667s4.779,10.667,10.667,10.667h128V224
			c0,5.888,4.779,10.667,10.667,10.667s10.667-4.779,10.667-10.667v-21.333C170.667,196.779,165.888,192,160,192z"/>
	</g>
</g>
<g>
	<g>
		<path d="M149.333,298.667h-128V288c0-5.888-4.779-10.667-10.667-10.667S0,282.112,0,288v21.333C0,315.221,4.779,320,10.667,320
			h138.667c5.888,0,10.667-4.779,10.667-10.667S155.221,298.667,149.333,298.667z"/>
	</g>
</g>
<g>
	<g>
		<path d="M501.333,341.333c-5.888,0-10.667,4.779-10.667,10.667v138.667h-32c-5.888,0-10.667,4.779-10.667,10.667
			c0,5.888,4.779,10.667,10.667,10.667h42.667c5.888,0,10.667-4.779,10.667-10.667V352C512,346.112,507.221,341.333,501.333,341.333
			z"/>
	</g>
</g>
<g>
	<g>
		<path d="M224,341.333h-21.333c-5.888,0-10.667,4.779-10.667,10.667v138.667c0,5.888,4.779,10.667,10.667,10.667
			s10.667-4.779,10.667-10.667v-128H224c5.888,0,10.667-4.779,10.667-10.667C234.667,346.112,229.888,341.333,224,341.333z"/>
	</g>
</g>
<g>
	<g>
		<path d="M394.667,490.667h-128c-5.888,0-10.667,4.779-10.667,10.667c0,5.888,4.779,10.667,10.667,10.667h128
			c5.888,0,10.667-4.779,10.667-10.667C405.333,495.445,400.555,490.667,394.667,490.667z"/>
	</g>
</g>
<g>
	<g>
		<path d="M309.333,448h-64c-5.888,0-10.667,4.779-10.667,10.667s4.779,10.667,10.667,10.667h64c5.888,0,10.667-4.779,10.667-10.667
			S315.221,448,309.333,448z"/>
	</g>
</g>
<g>
	<g>
		<path d="M458.667,448h-64c-5.888,0-10.667,4.779-10.667,10.667s4.779,10.667,10.667,10.667h64c5.888,0,10.667-4.779,10.667-10.667
			S464.555,448,458.667,448z"/>
	</g>
</g>
<g>
	<g>
		<path d="M437.333,341.333h-42.667c-5.888,0-10.667,4.779-10.667,10.667c0,5.888,4.779,10.667,10.667,10.667h42.667
			c5.888,0,10.667-4.779,10.667-10.667C448,346.112,443.221,341.333,437.333,341.333z"/>
	</g>
</g>
<g>
	<g>
		<path d="M352,341.333h-21.333c-5.888,0-10.667,4.779-10.667,10.667c0,5.888,4.779,10.667,10.667,10.667H352
			c5.888,0,10.667-4.779,10.667-10.667C362.667,346.112,357.888,341.333,352,341.333z"/>
	</g>
</g>
<g>
	<g>
		<path d="M288,341.333h-21.333c-5.888,0-10.667,4.779-10.667,10.667c0,5.888,4.779,10.667,10.667,10.667H288
			c5.888,0,10.667-4.779,10.667-10.667C298.667,346.112,293.888,341.333,288,341.333z"/>
	</g>
</g>
<g>
	<g>
		<path d="M394.667,384c-5.888,0-10.667,4.779-10.667,10.667V416c0,5.888,4.779,10.667,10.667,10.667s10.667-4.779,10.667-10.667
			v-21.333C405.333,388.779,400.555,384,394.667,384z"/>
	</g>
</g>
<g>
	<g>
		<path d="M458.667,384c-5.888,0-10.667,4.779-10.667,10.667V416c0,5.888,4.779,10.667,10.667,10.667s10.667-4.779,10.667-10.667
			v-21.333C469.333,388.779,464.555,384,458.667,384z"/>
	</g>
</g>
<g>
	<g>
		<path d="M245.333,384c-5.888,0-10.667,4.779-10.667,10.667V416c0,5.888,4.779,10.667,10.667,10.667S256,421.888,256,416v-21.333
			C256,388.779,251.221,384,245.333,384z"/>
	</g>
</g>
<g>
	<g>
		<path d="M309.333,384c-5.888,0-10.667,4.779-10.667,10.667V416c0,5.888,4.779,10.667,10.667,10.667S320,421.888,320,416v-21.333
			C320,388.779,315.221,384,309.333,384z"/>
	</g>
</g>
<g>
	<g>
		<path d="M53.333,234.667H32c-5.888,0-10.667,4.779-10.667,10.667S26.112,256,32,256h21.333C59.221,256,64,251.221,64,245.333
			S59.221,234.667,53.333,234.667z"/>
	</g>
</g>
<g>
	<g>
		<path d="M117.333,256H96c-5.888,0-10.667,4.779-10.667,10.667S90.112,277.333,96,277.333h21.333
			c5.888,0,10.667-4.779,10.667-10.667S123.221,256,117.333,256z"/>
	</g>
</g>
<g>
	<g>
		<path d="M501.333,298.667H330.667c-5.888,0-10.667,4.779-10.667,10.667S324.779,320,330.667,320h170.667
			c5.888,0,10.667-4.779,10.667-10.667S507.221,298.667,501.333,298.667z"/>
	</g>
</g>
<g>
	<g>
		<path d="M501.333,192H330.667c-5.888,0-10.667,4.779-10.667,10.667s4.779,10.667,10.667,10.667h170.667
			c5.888,0,10.667-4.779,10.667-10.667S507.221,192,501.333,192z"/>
	</g>
</g>
<g>
	<g>
		<path d="M309.333,0H202.667C196.779,0,192,4.779,192,10.667s4.779,10.667,10.667,10.667h106.667
			c5.888,0,10.667-4.779,10.667-10.667S315.221,0,309.333,0z"/>
	</g>
</g>
<g>
	<g>
		<path d="M202.667,42.667c-5.888,0-10.667,4.779-10.667,10.667V160c0,5.888,4.779,10.667,10.667,10.667s10.667-4.779,10.667-10.667
			V53.333C213.333,47.445,208.555,42.667,202.667,42.667z"/>
	</g>
</g>
<g>
	<g>
		<path d="M245.333,42.667c-5.888,0-10.667,4.779-10.667,10.667v21.333c0,5.888,4.779,10.667,10.667,10.667S256,80.555,256,74.667
			V53.333C256,47.445,251.221,42.667,245.333,42.667z"/>
	</g>
</g>
<g>
	<g>
		<path d="M266.667,106.667c-5.888,0-10.667,4.779-10.667,10.667v21.333c0,5.888,4.779,10.667,10.667,10.667
			s10.667-4.779,10.667-10.667v-21.333C277.333,111.445,272.555,106.667,266.667,106.667z"/>
	</g>
</g>
<g>
	<g>
		<path d="M309.333,0c-5.888,0-10.667,4.779-10.667,10.667v128c0,5.888,4.779,10.667,10.667,10.667S320,144.555,320,138.667v-128
			C320,4.779,315.221,0,309.333,0z"/>
	</g>
</g>
<g>
	<g>
		<path d="M416,256c-5.888,0-10.667,4.779-10.667,10.667v32c0,5.888,4.779,10.667,10.667,10.667c5.888,0,10.667-4.779,10.667-10.667
			v-32C426.667,260.779,421.888,256,416,256z"/>
	</g>
</g>
<g>
	<g>
		<path d="M501.333,234.667c-5.888,0-10.667,4.779-10.667,10.667v21.333c0,5.888,4.779,10.667,10.667,10.667
			c5.888,0,10.667-4.779,10.667-10.667v-21.333C512,239.445,507.221,234.667,501.333,234.667z"/>
	</g>
</g>
<g>
	<g>
		<path d="M330.667,234.667c-5.888,0-10.667,4.779-10.667,10.667v21.333c0,5.888,4.779,10.667,10.667,10.667
			s10.667-4.779,10.667-10.667v-21.333C341.333,239.445,336.555,234.667,330.667,234.667z"/>
	</g>
</g>
<g>
	<g>
		<path d="M373.333,234.667c-5.888,0-10.667,4.779-10.667,10.667v21.333c0,5.888,4.779,10.667,10.667,10.667
			c5.888,0,10.667-4.779,10.667-10.667v-21.333C384,239.445,379.221,234.667,373.333,234.667z"/>
	</g>
</g>
<g>
	<g>
		<path d="M202.667,192c-5.888,0-10.667,4.779-10.667,10.667v106.667c0,5.888,4.779,10.667,10.667,10.667
			s10.667-4.779,10.667-10.667V202.667C213.333,196.779,208.555,192,202.667,192z"/>
	</g>
</g>
<g>
	<g>
		<path d="M245.333,213.333h-32c-5.888,0-10.667,4.779-10.667,10.667s4.779,10.667,10.667,10.667h32
			c5.888,0,10.667-4.779,10.667-10.667S251.221,213.333,245.333,213.333z"/>
	</g>
</g>
<g>
	<g>
		<path d="M288,170.667c-5.888,0-10.667,4.779-10.667,10.667V288c0,5.888,4.779,10.667,10.667,10.667s10.667-4.779,10.667-10.667
			V181.333C298.667,175.445,293.888,170.667,288,170.667z"/>
	</g>
</g>
<g>
	<g>
		<path d="M277.333,256h-32c-5.888,0-10.667,4.779-10.667,10.667s4.779,10.667,10.667,10.667h32c5.888,0,10.667-4.779,10.667-10.667
			S283.221,256,277.333,256z"/>
	</g>
</g>
<g>
	<g>
		<path d="M117.333,42.667h-64c-5.888,0-10.667,4.779-10.667,10.667v64c0,5.888,4.779,10.667,10.667,10.667h64
			c5.888,0,10.667-4.779,10.667-10.667v-64C128,47.445,123.221,42.667,117.333,42.667z M106.667,106.667H64V64h42.667V106.667z"/>
	</g>
</g>
<g>
	<g>
		<path d="M458.667,42.667h-64c-5.888,0-10.667,4.779-10.667,10.667v64c0,5.888,4.779,10.667,10.667,10.667h64
			c5.888,0,10.667-4.779,10.667-10.667v-64C469.333,47.445,464.555,42.667,458.667,42.667z M448,106.667h-42.667V64H448V106.667z"/>
	</g>
</g>
<g>
	<g>
		<path d="M117.333,384h-64c-5.888,0-10.667,4.779-10.667,10.667v64c0,5.888,4.779,10.667,10.667,10.667h64
			c5.888,0,10.667-4.779,10.667-10.667v-64C128,388.779,123.221,384,117.333,384z M106.667,448H64v-42.667h42.667V448z"/>
	</g>
</g>
<g>
</g>
<g>
</g>
<g>
</g>
<g>
</g>
<g>
</g>
<g>
</g>
<g>
</g>
<g>
</g>
<g>
</g>
<g>
</g>
<g>
</g>
<g>
</g>
<g>
</g>
<g>
</g>
<g>
</g>
</svg>
