<?xml version="1.0" encoding="utf-8"?>
<!-- Generator: Adobe Illustrator 16.0.0, SVG Export Plug-In . SVG Version: 6.00 Build 0)  -->
<!DOCTYPE svg PUBLIC "-//W3C//DTD SVG 1.1//EN" "http://www.w3.org/Graphics/SVG/1.1/DTD/svg11.dtd">
<svg version="1.1" id="Capa_1" xmlns="http://www.w3.org/2000/svg" xmlns:xlink="http://www.w3.org/1999/xlink" x="0px" y="0px"
	 width="70px" height="70px" viewBox="0 0 70 70" enable-background="new 0 0 70 70" xml:space="preserve">
<path fill="#1F7AED" d="M40.9,57.7c0-4,0-7.9,0-11.9c0-0.3,0.1-0.4,0.4-0.4c2.5,0,4.9,0,7.4,0c0.3,0,0.4,0,0.4-0.4
	c0.3-2.4,0.7-4.6,1.1-7c0.1-0.8,0.2-1.8,0.4-2.6c0-0.3-0.1-0.3-0.3-0.3c-3,0-5.9,0-9,0c-0.3,0-0.4-0.1-0.4-0.4c0-2.1,0-4.1,0-6.2
	c0-1.3,0.3-2.6,1.1-3.6c0.8-1,1.8-1.5,3.1-1.8c1.2-0.2,2.5-0.1,3.7-0.1c0.6,0,1.3,0,1.9,0c0.2,0,0.2,0,0.2-0.2c0-2.8,0-5.5,0-8.2
	c0-0.3-0.2-0.2-0.3-0.3c-0.8-0.1-1.5-0.2-2.4-0.3c-1.8-0.2-3.7-0.4-5.5-0.3c-2.7,0.1-5.2,0.6-7.5,2.2c-2.6,1.7-4.1,4.2-4.8,7.1
	C30.1,24.5,30,26,30,27.6c0,2.4,0,4.8,0,7.2c0,0.2-0.1,0.3-0.3,0.3c-2.8,0-5.4,0-8.2,0c-0.3,0-0.3,0.1-0.3,0.4c0,3.2,0,6.4,0,9.5
	c0,0.3,0.1,0.4,0.3,0.4c2.7,0,5.4,0,8.1,0c0.3,0,0.3,0.1,0.3,0.4c0,7.9,0,15.9,0,23.8c0,0.4,0,0.4-0.4,0.3
	c-6.8-1.2-12.7-4.1-17.8-8.9C6.2,56,2.7,49.7,1.1,42.4c-0.4-2-0.6-3.9-0.7-5.9c0-6.1,1.2-11.8,3.9-17.1c5-9.9,13-16.1,23.8-18.6
	c3-0.7,6.1-0.9,9-0.7C43.6,0.4,49.6,2.4,54.9,6c7.4,5,12.2,11.9,14.5,20.8c0.8,3.4,1.2,6.9,1,10.4c-0.2,4.8-1.4,9.6-3.7,13.9
	c-3.4,6.8-8.5,11.9-15.3,15.5c-3.2,1.6-6.7,2.8-10.2,3.4c-0.3,0.1-0.3-0.1-0.3-0.3C40.9,65.7,40.9,61.7,40.9,57.7z"/>
</svg>
