<?xml version="1.0" encoding="utf-8"?>
<!-- Generator: Adobe Illustrator 16.0.0, SVG Export Plug-In . SVG Version: 6.00 Build 0)  -->
<!DOCTYPE svg PUBLIC "-//W3C//DTD SVG 1.1//EN" "http://www.w3.org/Graphics/SVG/1.1/DTD/svg11.dtd">
<svg version="1.1" id="Capa_1" xmlns="http://www.w3.org/2000/svg" xmlns:xlink="http://www.w3.org/1999/xlink" x="0px" y="0px"
	 width="70px" height="70px" viewBox="0 0 70 70" enable-background="new 0 0 70 70" xml:space="preserve">
<path fill="#FBBB00" d="M15.9,42.8l-2.5,9.1l-8.9,0.2c-2.7-4.9-4.2-10.6-4.2-16.6c0-5.8,1.4-11.3,3.9-16.1l0,0l7.9,1.4l3.5,7.9
	c-0.7,2.2-1.1,4.4-1.1,6.8C14.5,38.1,14.9,40.5,15.9,42.8z"/>
<path fill="#518EF8" d="M69.6,28.9c0.4,2.2,0.6,4.3,0.6,6.6c0,2.5-0.3,4.9-0.7,7.3c-1.7,8-6.2,15-12.3,20l0,0l-10-0.5l-1.4-8.9
	c4.1-2.4,7.3-6.2,8.9-10.6H36V28.9h18.9H69.6L69.6,28.9z"/>
<path fill="#28B446" d="M57.2,62.8L57.2,62.8c-6,4.8-13.6,7.7-21.9,7.7c-13.3,0-24.9-7.4-30.7-18.4l11.3-9.3
	c3,7.9,10.6,13.5,19.4,13.5c3.8,0,7.4-1,10.5-2.9L57.2,62.8z"/>
<path fill="#F14336" d="M57.6,8.5l-11.3,9.3c-3.2-2-7-3.2-11-3.2c-9.1,0-16.9,5.9-19.6,14L4.3,19.4l0,0c5.9-11.2,17.6-18.9,31-18.9
	C43.7,0.5,51.5,3.5,57.6,8.5z"/>
</svg>
