<?xml version="1.0" encoding="utf-8"?>
<!-- Generator: Adobe Illustrator 19.2.0, SVG Export Plug-In . SVG Version: 6.00 Build 0)  -->
<svg version="1.1" id="Layer_1" xmlns="http://www.w3.org/2000/svg" xmlns:xlink="http://www.w3.org/1999/xlink" x="0px" y="0px"
	 viewBox="0 0 32 32" style="enable-background:new 0 0 32 32;" xml:space="preserve">
<style type="text/css">
	.st0{fill:url(#SVGID_1_);}
	.st1{fill:url(#SVGID_2_);}
	.st2{fill:url(#SVGID_3_);}
</style>
<g>
	<linearGradient id="SVGID_1_" gradientUnits="userSpaceOnUse" x1="10.3219" y1="10.2031" x2="21.8969" y2="21.7781">
		<stop  offset="0" style="stop-color:#4B6CB4"/>
		<stop  offset="1" style="stop-color:#43A1CB"/>
	</linearGradient>
	<path class="st0" d="M16.1,7.8c-4.5,0-8.2,3.7-8.2,8.2s3.7,8.2,8.2,8.2s8.2-3.7,8.2-8.2S20.7,7.8,16.1,7.8L16.1,7.8z M16.1,21.3
		c-2.9,0-5.3-2.4-5.3-5.3s2.4-5.3,5.3-5.3s5.3,2.4,5.3,5.3C21.5,18.9,19.1,21.3,16.1,21.3z"/>
	<linearGradient id="SVGID_2_" gradientUnits="userSpaceOnUse" x1="2.8253" y1="2.6747" x2="29.4732" y2="29.3226">
		<stop  offset="0" style="stop-color:#4B6CB4"/>
		<stop  offset="1" style="stop-color:#43A1CB"/>
	</linearGradient>
	<path class="st1" d="M22.7,0.1C19.8,0,12.5,0,9.5,0.1C7,0.2,4.7,0.8,2.8,2.7c-3,3.1-2.7,7.2-2.7,13.3c0,6.2-0.3,10.3,2.7,13.3
		c3.1,3.1,7.3,2.7,13.3,2.7c6.2,0,8.3,0,10.5-0.8c3-1.2,5.2-3.8,5.4-8.6c0.1-2.9,0.1-10.2,0-13.2C31.8,3.8,28.8,0.4,22.7,0.1
		L22.7,0.1z M27.4,27.3c-2,2-4.8,1.8-11.3,1.8c-6.7,0-9.3,0.1-11.3-1.9C2.6,25,3,21.4,3,16C3,8.6,2.2,3.3,9.6,2.9
		c1.7-0.1,2.2-0.1,6.5-0.1h0.1c7.1,0,12.7-0.7,13,6.6c0.1,1.7,0.1,2.2,0.1,6.5C29.2,22.6,29.4,25.3,27.4,27.3L27.4,27.3z"/>
	<linearGradient id="SVGID_3_" gradientUnits="userSpaceOnUse" x1="23.3565" y1="6.1565" x2="26.0435" y2="8.8435">
		<stop  offset="0" style="stop-color:#4B6CB4"/>
		<stop  offset="1" style="stop-color:#43A1CB"/>
	</linearGradient>
	<circle class="st2" cx="24.7" cy="7.5" r="1.9"/>
</g>
</svg>
