<?xml version="1.0" encoding="utf-8"?>
<!-- Generator: Adobe Illustrator 19.2.0, SVG Export Plug-In . SVG Version: 6.00 Build 0)  -->
<svg version="1.1" id="Layer_1" xmlns="http://www.w3.org/2000/svg" xmlns:xlink="http://www.w3.org/1999/xlink" x="0px" y="0px"
	 viewBox="0 0 32 32" style="enable-background:new 0 0 32 32;" xml:space="preserve">
<style type="text/css">
	.st0{fill:url(#SVGID_1_);}
</style>
<g>
	<g>
		
			<linearGradient id="SVGID_1_" gradientUnits="userSpaceOnUse" x1="1.7605" y1="30.2395" x2="30.2396" y2="1.7604" gradientTransform="matrix(1 0 0 -1 0 32)">
			<stop  offset="0" style="stop-color:#4C6CB4"/>
			<stop  offset="1" style="stop-color:#42A1CB"/>
		</linearGradient>
		<path class="st0" d="M30.2,1.8C29.1,0.6,27.7,0,26,0H6C4.3,0,2.9,0.6,1.8,1.8C0.6,2.9,0,4.3,0,6v20c0,1.7,0.6,3.1,1.8,4.2
			C2.9,31.4,4.3,32,6,32h20c1.7,0,3.1-0.6,4.2-1.8C31.4,29,32,27.6,32,26V6C32,4.3,31.4,2.9,30.2,1.8z M9.8,26.8H4.9V12.3h4.8
			L9.8,26.8L9.8,26.8z M9.3,9.7c-0.5,0.5-1.2,0.7-2,0.7l0,0c-0.8,0-1.4-0.2-1.9-0.7S4.6,8.6,4.6,7.9s0.3-1.3,0.8-1.8s1.2-0.7,2-0.7
			s1.5,0.2,1.9,0.7C9.8,6.6,10,7.2,10,7.9C10.1,8.6,9.8,9.2,9.3,9.7z M27.1,26.8h-4.8v-7.7c0-2.2-0.8-3.3-2.4-3.3
			c-0.6,0-1.1,0.2-1.5,0.5c-0.4,0.3-0.7,0.8-0.9,1.2c-0.1,0.2-0.1,0.6-0.1,1.2v8.1h-4.8c0-8.7,0-13.5,0-14.5h4.8v2
			c1-1.6,2.4-2.4,4.3-2.4c1.7,0,3,0.5,4,1.6s1.5,2.7,1.5,4.9L27.1,26.8L27.1,26.8L27.1,26.8z"/>
	</g>
</g>
</svg>
